<svg width="80" height="80" viewBox="0 0 80 80" fill="none" xmlns="http://www.w3.org/2000/svg">
<path d="M39.3326 36.3333C31.7659 34.3667 29.3326 32.3333 29.3326 29.1667C29.3326 25.5333 32.6993 23 38.3326 23C44.2659 23 46.4659 25.8333 46.6659 30H54.0326C53.7992 24.2667 50.2992 19 43.3326 17.3V10H33.3326V17.2C26.8659 18.6 21.6659 22.8 21.6659 29.2333C21.6659 36.9333 28.0326 40.7667 37.3326 43C45.6659 45 47.3326 47.9333 47.3326 51.0333C47.3326 53.3333 45.6993 57 38.3326 57C31.4659 57 28.7659 53.9333 28.3993 50H21.0659C21.4659 57.3 26.9326 61.4 33.3326 62.7667V70H43.3326V62.8333C49.8326 61.6 54.9993 57.8333 54.9993 51C54.9993 41.5333 46.8993 38.3 39.3326 36.3333Z" fill="black" fill-opacity="0.29"/>
</svg>
