<svg width="24" height="24" viewBox="0 0 24 24" fill="none" xmlns="http://www.w3.org/2000/svg">
<g clip-path="url(#clip0_8_118)">
<path d="M11.8122 15.0209C13.3416 15.0209 14.5814 13.7811 14.5814 12.2517C14.5814 10.7222 13.3416 9.48242 11.8122 9.48242C10.2828 9.48242 9.04297 10.7222 9.04297 12.2517C9.04297 13.7811 10.2828 15.0209 11.8122 15.0209Z" stroke="#342E30" stroke-width="1.84615" stroke-linecap="round" stroke-linejoin="round"/>
<path d="M18.6428 15.0207C18.5199 15.2991 18.4833 15.608 18.5376 15.9074C18.5919 16.2069 18.7346 16.4832 18.9474 16.7007L19.0028 16.7561C19.1745 16.9276 19.3106 17.1312 19.4035 17.3553C19.4965 17.5794 19.5443 17.8197 19.5443 18.0623C19.5443 18.3049 19.4965 18.5451 19.4035 18.7692C19.3106 18.9934 19.1745 19.197 19.0028 19.3684C18.8314 19.5401 18.6278 19.6762 18.4036 19.7692C18.1795 19.8621 17.9393 19.9099 17.6967 19.9099C17.4541 19.9099 17.2138 19.8621 16.9897 19.7692C16.7656 19.6762 16.562 19.5401 16.3905 19.3684L16.3351 19.313C16.1176 19.1002 15.8413 18.9575 15.5418 18.9032C15.2424 18.8489 14.9335 18.8856 14.6551 19.0084C14.3821 19.1254 14.1493 19.3197 13.9853 19.5674C13.8212 19.815 13.7332 20.1052 13.7321 20.4023V20.5592C13.7321 21.0488 13.5375 21.5184 13.1913 21.8646C12.8451 22.2108 12.3755 22.4053 11.8859 22.4053C11.3963 22.4053 10.9267 22.2108 10.5805 21.8646C10.2342 21.5184 10.0397 21.0488 10.0397 20.5592V20.4761C10.0326 20.1706 9.9337 19.8743 9.75591 19.6257C9.57811 19.3771 9.32965 19.1878 9.04282 19.0823C8.7644 18.9594 8.45556 18.9227 8.15612 18.977C7.85668 19.0313 7.58037 19.1741 7.36282 19.3869L7.30743 19.4423C7.13598 19.6139 6.93237 19.7501 6.70825 19.843C6.48413 19.9359 6.24389 19.9837 6.00128 19.9837C5.75867 19.9837 5.51843 19.9359 5.29431 19.843C5.07019 19.7501 4.86658 19.6139 4.69513 19.4423C4.52348 19.2708 4.38731 19.0672 4.2944 18.8431C4.20149 18.619 4.15367 18.3787 4.15367 18.1361C4.15367 17.8935 4.20149 17.6533 4.2944 17.4292C4.38731 17.205 4.52348 17.0014 4.69513 16.83L4.75051 16.7746C4.96331 16.557 5.10607 16.2807 5.16036 15.9813C5.21466 15.6818 5.178 15.373 5.05513 15.0946C4.93811 14.8216 4.74382 14.5887 4.49617 14.4247C4.24852 14.2607 3.95831 14.1727 3.66128 14.1715H3.50436C3.01473 14.1715 2.54515 13.977 2.19893 13.6308C1.85271 13.2846 1.6582 12.815 1.6582 12.3253C1.6582 11.8357 1.85271 11.3661 2.19893 11.0199C2.54515 10.6737 3.01473 10.4792 3.50436 10.4792H3.58743C3.89297 10.472 4.18928 10.3732 4.43786 10.1954C4.68644 10.0176 4.87579 9.7691 4.98128 9.48227C5.10416 9.20386 5.14081 8.89502 5.08652 8.59558C5.03222 8.29613 4.88947 8.01982 4.67666 7.80227L4.62128 7.74689C4.44963 7.57543 4.31346 7.37182 4.22055 7.1477C4.12765 6.92358 4.07983 6.68335 4.07983 6.44073C4.07983 6.19812 4.12765 5.95789 4.22055 5.73377C4.31346 5.50965 4.44963 5.30604 4.62128 5.13458C4.79274 4.96293 4.99635 4.82676 5.22047 4.73385C5.44459 4.64095 5.68482 4.59313 5.92743 4.59313C6.17005 4.59313 6.41028 4.64095 6.6344 4.73385C6.85852 4.82676 7.06213 4.96293 7.23359 5.13458L7.28897 5.18996C7.50652 5.40277 7.78283 5.54552 8.08228 5.59981C8.38172 5.65411 8.69056 5.61745 8.96897 5.49458H9.04282C9.31584 5.37757 9.54868 5.18328 9.71269 4.93562C9.8767 4.68797 9.96471 4.39777 9.9659 4.10073V3.94381C9.9659 3.45418 10.1604 2.9846 10.5066 2.63838C10.8528 2.29216 11.3224 2.09766 11.812 2.09766C12.3017 2.09766 12.7713 2.29216 13.1175 2.63838C13.4637 2.9846 13.6582 3.45418 13.6582 3.94381V4.02689C13.6594 4.32392 13.7474 4.61413 13.9114 4.86178C14.0754 5.10943 14.3083 5.30372 14.5813 5.42073C14.8597 5.54361 15.1685 5.58026 15.468 5.52597C15.7674 5.47167 16.0437 5.32892 16.2613 5.11612L16.3167 5.06073C16.4881 4.88908 16.6917 4.75291 16.9159 4.66001C17.14 4.5671 17.3802 4.51928 17.6228 4.51928C17.8654 4.51928 18.1057 4.5671 18.3298 4.66001C18.5539 4.75291 18.7575 4.88908 18.929 5.06073C19.1006 5.23219 19.2368 5.4358 19.3297 5.65992C19.4226 5.88404 19.4704 6.12427 19.4704 6.36689C19.4704 6.6095 19.4226 6.84973 19.3297 7.07385C19.2368 7.29797 19.1006 7.50158 18.929 7.67304L18.8736 7.72843C18.6608 7.94598 18.518 8.22229 18.4637 8.52173C18.4094 8.82117 18.4461 9.13001 18.569 9.40843V9.48227C18.686 9.75529 18.8803 9.98813 19.1279 10.1521C19.3756 10.3162 19.6658 10.4042 19.9628 10.4053H20.1197C20.6094 10.4053 21.0789 10.5999 21.4252 10.9461C21.7714 11.2923 21.9659 11.7619 21.9659 12.2515C21.9659 12.7411 21.7714 13.2107 21.4252 13.5569C21.0789 13.9032 20.6094 14.0977 20.1197 14.0977H20.0367C19.7396 14.0988 19.4494 14.1869 19.2018 14.3509C18.9541 14.5149 18.7598 14.7477 18.6428 15.0207V15.0207Z" stroke="#342E30" stroke-width="1.84615" stroke-linecap="round" stroke-linejoin="round"/>
</g>
<defs>
<clipPath id="clip0_8_118">
<rect width="22.1538" height="22.1538" fill="white" transform="translate(0.735352 1.1748)"/>
</clipPath>
</defs>
</svg>
