<svg width="80" height="80" viewBox="0 0 80 80" fill="none" xmlns="http://www.w3.org/2000/svg">
<path d="M49.9998 33.3337C49.9998 31.5003 51.4998 30.0003 53.3332 30.0003C55.1665 30.0003 56.6665 31.5003 56.6665 33.3337C56.6665 35.167 55.1665 36.667 53.3332 36.667C51.4998 36.667 49.9998 35.167 49.9998 33.3337ZM26.6665 30.0003H43.3332V23.3337H26.6665V30.0003ZM73.3332 25.0003V48.2337L63.9332 51.367L58.3332 70.0003H39.9998V63.3337H33.3332V70.0003H14.9998C14.9998 70.0003 6.6665 41.8003 6.6665 31.667C6.6665 21.5337 14.8665 13.3337 24.9998 13.3337H41.6665C44.6998 9.30033 49.5332 6.66699 54.9998 6.66699C57.7665 6.66699 59.9998 8.90033 59.9998 11.667C59.9998 12.367 59.8665 13.0003 59.5998 13.6003C59.1332 14.7337 58.7332 16.0337 58.5332 17.4337L66.0998 25.0003H73.3332ZM66.6665 31.667H63.3332L51.6665 20.0003C51.6665 17.8337 51.9665 15.7003 52.5332 13.6337C49.2998 14.467 46.6665 16.867 45.5665 20.0003H24.9998C18.5665 20.0003 13.3332 25.2337 13.3332 31.667C13.3332 37.9337 17.3998 53.8337 20.0332 63.3337H26.6665V56.667H46.6665V63.3337H53.3665L58.5332 46.167L66.6665 43.4337V31.667Z" fill="black" fill-opacity="0.3"/>
</svg>
